<?xml version="1.0" encoding="UTF-8"?>
<svg width="680px" height="204px" viewBox="0 0 680 204" version="1.1" xmlns="http://www.w3.org/2000/svg" xmlns:xlink="http://www.w3.org/1999/xlink">
    <!-- Generator: Sketch 53.2 (72643) - https://sketchapp.com -->
    <title>Artboard</title>
    <desc>Created with Sketch.</desc>
    <g id="Artboard" stroke="none" stroke-width="1" fill="none" fill-rule="evenodd">
        <g id="xander" transform="translate(80.000000, 24.000000)" fill="#48555C" fill-rule="nonzero">
            <polygon id="path14" points="65.8203658 131.774321 94.4659039 131.774321 61.797116 86.7139237 94.1440439 42.1363166 65.0157158 42.1363166 47.152487 67.080465 29.6111181 42.1363166 0 42.1363166 32.6687879 86.5529937 0.16092999 131.774321 28.6455382 131.774321 47.313417 106.991102"></polygon>
            <path d="M151.357181,41.1707367 L151.518111,46.3204963 C145.080911,43.1018965 137.999992,41.3316667 130.758142,41.3316667 C124.642803,41.3316667 118.527463,42.4581766 112.894913,44.8721264 C107.423294,47.2860763 102.595394,50.5046761 98.2502844,54.6888558 C94.0661047,58.8730355 90.8475049,63.8618652 88.433555,69.3334848 C86.1805352,74.9660345 84.8930952,81.0813741 84.8930952,87.1967137 C84.8930952,93.3120533 86.1805352,99.4273929 88.433555,105.059943 C90.8475049,110.531562 94.0661047,115.359462 98.2502844,119.704572 C102.595394,123.888751 107.423294,127.107351 112.894913,129.521301 C118.527463,131.774321 124.642803,133.061761 130.758142,133.061761 C137.999992,133.061761 145.080911,131.291531 151.518111,128.072931 L151.357181,131.774321 L175.496679,131.774321 L175.496679,41.1707367 L151.357181,41.1707367 Z M141.701382,105.864593 C138.482782,107.795752 134.620462,108.922262 130.758142,108.922262 C118.849323,108.922262 109.032594,99.1055329 109.032594,87.1967137 C109.032594,75.2878945 118.849323,65.4711651 130.758142,65.4711651 C134.942322,65.4711651 139.126502,66.597675 142.506032,69.0116249 C146.046491,71.1037147 148.782301,74.3223145 150.391601,78.0237043 C151.839971,80.9204441 152.483691,83.9781139 152.483691,87.1967137 C152.483691,91.0590335 151.518111,94.7604232 149.586951,98.139953 C147.655791,101.358553 145.080911,104.094363 141.701382,105.864593 Z" id="path16"></path>
            <path d="M256.527433,55.4935057 C248.802793,47.9297962 238.664204,43.7456165 227.881894,43.7456165 C222.088415,43.7456165 216.616795,44.8721264 211.627965,47.1251463 L211.627965,41.1707367 L187.488467,41.1707367 L187.488467,80.5985841 C187.327537,81.886024 187.327537,83.012534 187.327537,84.2999739 L187.488467,84.2999739 L187.488467,131.774321 L211.627965,131.774321 L211.627965,81.886024 C212.754475,74.0004545 219.513535,67.8851149 227.881894,67.8851149 C236.893974,67.8851149 244.296753,75.2878945 244.296753,84.2999739 L244.296753,131.774321 L268.436252,131.774321 L268.436252,84.2999739 C268.436252,73.3567346 264.091142,63.2181452 256.527433,55.4935057 Z" id="path18"></path>
            <path d="M278.441582,104.899013 C280.855532,110.370632 284.074132,115.359462 288.258312,119.543642 C292.603421,123.727821 297.431321,127.107351 302.902941,129.360371 C308.53549,131.774321 314.65083,132.900831 320.766169,132.900831 C326.881509,132.900831 332.996849,131.774321 338.629398,129.360371 C344.101018,127.107351 348.928918,123.727821 353.274027,119.543642 C357.458207,115.359462 360.676807,110.370632 363.090757,104.899013 C365.504707,99.2664629 366.631217,93.3120533 366.631217,87.0357837 L366.631217,8.98473873 L342.491718,0.938239248 L342.491718,46.6423563 C341.204278,45.9986364 339.916838,45.3549164 338.629398,44.8721264 C332.996849,42.4581766 327.042439,41.3316667 320.766169,41.3316667 C314.65083,41.3316667 308.53549,42.4581766 302.902941,44.8721264 C297.431321,47.1251463 292.603421,50.5046761 288.258312,54.6888558 C284.074132,58.8730355 280.855532,63.8618652 278.441582,69.3334848 C276.188562,74.9660345 274.901122,80.9204441 274.901122,87.0357837 C274.901122,93.3120533 276.188562,99.2664629 278.441582,104.899013 L278.441582,104.899013 Z M320.766169,65.3102351 C332.674989,65.3102351 342.491718,75.1269645 342.491718,87.0357837 C342.491718,99.1055329 332.674989,108.761332 320.766169,108.761332 C308.85735,108.761332 299.040621,99.1055329 299.040621,87.0357837 C299.040621,75.1269645 308.85735,65.3102351 320.766169,65.3102351 Z" id="path20"></path>
            <path d="M416.886635,132.418041 C423.162904,132.418041 429.278244,131.130601 435.071724,128.555721 C440.704273,126.141771 445.693103,122.601311 449.877283,118.256202 L432.818704,102.163203 C428.634524,106.669242 423.001974,109.083192 416.886635,109.083192 C409.001065,109.083192 402.081076,104.899013 398.218756,98.783673 L462.107962,98.783673 L462.107962,87.0357837 C462.107962,74.9660345 457.440992,63.5400052 448.911703,55.0107158 C440.382413,46.4814263 428.956384,41.6535266 416.886635,41.6535266 C404.655956,41.6535266 393.390856,46.4814263 384.700637,55.0107158 C376.171347,63.5400052 371.504378,74.9660345 371.504378,87.0357837 C371.504378,99.1055329 376.171347,110.531562 384.700637,119.060852 C393.390856,127.590141 404.655956,132.418041 416.886635,132.418041 Z M398.218756,75.4488245 C402.081076,69.1725549 409.001065,64.9883751 416.886635,64.9883751 C424.611274,64.9883751 431.531264,69.1725549 435.554514,75.4488245 L398.218756,75.4488245 Z" id="path22"></path>
            <path d="M491.837252,131.774321 L491.837252,131.774321 L491.837252,92.1855434 C491.837252,76.7362644 504.389791,64.0227952 520,64.0227952 L520,39.8832967 C512.91908,39.8832967 505.999091,41.3316667 499.561891,44.0674765 C493.446552,46.6423563 487.814002,50.5046761 482.986102,55.3325758 C478.158203,59.9995455 474.456813,65.6320951 471.721003,71.9083647 C468.985193,78.3455643 467.697753,85.1046238 467.697753,92.1855434 L467.697753,131.774321 L491.837252,131.774321 Z" id="path24"></path>
        </g>
    </g>
</svg>